<?xml version="1.0" encoding="UTF-8" standalone="no"?>
<!-- Created with Inkscape (http://www.inkscape.org/) -->

<svg
   xmlns:dc="http://purl.org/dc/elements/1.1/"
   xmlns:cc="http://creativecommons.org/ns#"
   xmlns:rdf="http://www.w3.org/1999/02/22-rdf-syntax-ns#"
   xmlns:svg="http://www.w3.org/2000/svg"
   xmlns="http://www.w3.org/2000/svg"
   xmlns:sodipodi="http://sodipodi.sourceforge.net/DTD/sodipodi-0.dtd"
   xmlns:inkscape="http://www.inkscape.org/namespaces/inkscape"
   width="457.04828"
   height="84.102234"
   viewBox="0 0 120.92736 22.252049"
   version="1.1"
   id="svg4373"
   inkscape:version="0.92.3 (2405546, 2018-03-11)"
   sodipodi:docname="logo.svg">
  <defs
     id="defs4367" />
  <sodipodi:namedview
     id="base"
     pagecolor="#000000"
     bordercolor="#666666"
     borderopacity="1.0"
     inkscape:pageopacity="1"
     inkscape:pageshadow="2"
     inkscape:zoom="4"
     inkscape:cx="145.97051"
     inkscape:cy="70.099597"
     inkscape:document-units="mm"
     inkscape:current-layer="layer1"
     showgrid="true"
     inkscape:window-width="1920"
     inkscape:window-height="1012"
     inkscape:window-x="0"
     inkscape:window-y="32"
     inkscape:window-maximized="1"
     fit-margin-top="0.1"
     fit-margin-left="0.1"
     fit-margin-right="0.1"
     fit-margin-bottom="0.1">
    <inkscape:grid
       type="xygrid"
       id="grid4375"
       originx="-44.717556"
       originy="-90.839889" />
  </sodipodi:namedview>
  <metadata
     id="metadata4370">
    <rdf:RDF>
      <cc:Work
         rdf:about="">
        <dc:format>image/svg+xml</dc:format>
        <dc:type
           rdf:resource="http://purl.org/dc/dcmitype/StillImage" />
        <dc:title></dc:title>
      </cc:Work>
    </rdf:RDF>
  </metadata>
  <g
     inkscape:label="Layer 1"
     inkscape:groupmode="layer"
     id="layer1"
     transform="translate(-44.717559,-183.90807)">
    <g
       transform="matrix(0.06560919,0,0,0.06107078,32.39442,163.94217)"
       id="layer1-9">
      <path
         inkscape:connector-curvature="0"
         d="m 305.13872,553.93381 c 0,0 -212.636292,-169.77013 -59.39697,-218.49599 153.44218,-48.79037 93.3381,210.01071 93.3381,210.01071 z"
         id="path3223"
         style="fill:#502d16;fill-opacity:1;fill-rule:evenodd;stroke:#000000;stroke-width:4;stroke-linecap:butt;stroke-linejoin:round;stroke-miterlimit:4;stroke-dasharray:none;stroke-opacity:1" />
      <path
         inkscape:connector-curvature="0"
         d="m 513.68958,561.9649 a 121.49766,121.49766 0 1 1 -242.99531,0 121.49766,121.49766 0 1 1 242.99531,0 z"
         transform="translate(-26.730683)"
         id="path2385"
         style="fill:#784421;fill-opacity:1;fill-rule:nonzero;stroke:#000000;stroke-width:4;stroke-linecap:round;stroke-linejoin:round;stroke-miterlimit:4;stroke-dasharray:none;stroke-opacity:1" />
      <path
         inkscape:connector-curvature="0"
         d="m 177.21875,113.15625 c -24.50513,0 -47.31382,7.2551 -66.40625,19.75 8.53922,30.08742 35.94962,52.24349 68.625,52.8125 1.08029,1.85154 2.10949,3.32055 2.75,3.78125 2.01379,1.44847 12.86001,2.00501 14.875,0.34375 0.98751,-0.81415 2.78652,-3.71741 4.25,-7.03125 22.47619,-6.63757 40.43201,-23.88331 48.09375,-45.90625 -20.1859,-14.9392 -45.16502,-23.75 -72.1875,-23.75 z"
         transform="translate(188.23144,327.31447)"
         id="path3302"
         style="fill:#000000;fill-opacity:0.31372549;fill-rule:nonzero;stroke:none;stroke-width:4.00000048;stroke-linecap:round;stroke-linejoin:round;stroke-miterlimit:4;stroke-dasharray:none;stroke-opacity:1" />
      <path
         inkscape:connector-curvature="0"
         d="m 440.03557,422.84064 a 49.10268,49.10268 0 1 1 -98.20536,0 49.10268,49.10268 0 1 1 98.20536,0 z"
         transform="matrix(0.4679487,-6.2367319e-8,6.2367319e-8,0.4679487,153.19319,346.49342)"
         id="path3242"
         style="fill:#000000;fill-opacity:0.31372549;fill-rule:nonzero;stroke:none;stroke-width:8.54794598;stroke-linecap:round;stroke-linejoin:round;stroke-miterlimit:4;stroke-dasharray:none;stroke-opacity:1" />
      <path
         inkscape:connector-curvature="0"
         d="m 365.45682,440.46875 c -12.92545,0 -25.3749,2.03698 -37.0625,5.78125 10.51387,-2.45545 21.60216,-3.78125 33.0625,-3.78125 31.43752,0 60.10758,9.87809 81.6875,26.09375 -21.06394,-17.54131 -48.15384,-28.09375 -77.6875,-28.09375 z m 115.0625,82.375 c 1.5943,6.48815 2.4375,13.18721 2.4375,20.0625 1e-5,55.4436 -54.43329,100.4375 -121.5,100.4375 -56.08404,2e-5 -103.31087,-31.45896 -117.28125,-74.1875 3.72411,63.72461 56.62784,114.31248 121.28125,114.3125 67.06671,0 121.50001,-54.43329 121.5,-121.5 0,-13.68255 -2.26138,-26.84919 -6.4375,-39.125 z"
         id="path3276"
         style="fill:#000000;fill-opacity:0.31372549;fill-rule:nonzero;stroke:none;stroke-width:4;stroke-linecap:round;stroke-linejoin:round;stroke-miterlimit:4;stroke-dasharray:none;stroke-opacity:1" />
      <path
         inkscape:connector-curvature="0"
         d="m 97.5625,21.875 c -11.05537,0 -20.031253,8.975879 -20.03125,20.03125 0,7.154588 3.757982,13.426214 9.40625,16.96875 -5.971075,10.554182 -9.406249,22.735047 -9.40625,35.71875 0,40.13443 32.55307,72.71875 72.6875,72.71875 40.13443,0 72.71876,-32.58432 72.71875,-72.71875 0,-12.983703 -3.43518,-25.164568 -9.40625,-35.71875 5.63568,-3.545109 9.40625,-9.823717 9.40625,-16.96875 0,-11.05537 -8.97589,-20.03125 -20.03125,-20.03125 -7.14503,0 -13.39239,3.770571 -16.9375,9.40625 -10.55962,-5.979364 -22.7566,-9.40625 -35.75,-9.40625 -12.98994,0 -25.16107,3.429847 -35.71875,9.40625 C 110.95489,25.645571 104.70753,21.875 97.5625,21.875 Z"
         transform="translate(215.23291,337.26301)"
         id="path2479"
         style="fill:#784421;fill-opacity:1;fill-rule:nonzero;stroke:#000000;stroke-width:4.00000048;stroke-linecap:round;stroke-linejoin:round;stroke-miterlimit:4;stroke-dasharray:none;stroke-opacity:1" />
      <path
         inkscape:connector-curvature="0"
         d="m 424.33182,614.21875 c -30.40589,0 -55.09375,24.68786 -55.09375,55.09375 0,6.28661 1.05766,12.30814 3,17.9375 h 104.15625 c 1.94234,-5.62935 3,-11.65089 3,-17.9375 0,-30.40589 -24.65661,-55.09376 -55.0625,-55.09375 z"
         id="path3163"
         style="fill:#784421;fill-opacity:1;fill-rule:nonzero;stroke:#000000;stroke-width:4;stroke-linecap:round;stroke-linejoin:round;stroke-miterlimit:4;stroke-dasharray:none;stroke-opacity:1" />
      <path
         inkscape:connector-curvature="0"
         d="m 314.14432,614.21875 c -30.40589,0 -55.06249,24.68786 -55.0625,55.09375 0,6.28661 1.05766,12.30814 3,17.9375 h 104.15625 c 1.94234,-5.62935 3,-11.65089 3,-17.9375 0,-30.40589 -24.68787,-55.09376 -55.09375,-55.09375 z"
         id="path3165"
         style="fill:#784421;fill-opacity:1;fill-rule:nonzero;stroke:#000000;stroke-width:4;stroke-linecap:round;stroke-linejoin:round;stroke-miterlimit:4;stroke-dasharray:none;stroke-opacity:1" />
      <path
         inkscape:connector-curvature="0"
         d="m 371.41771,413.3978 a 9.442825,9.442825 0 1 1 -18.88565,0 9.442825,9.442825 0 1 1 18.88565,0 z"
         transform="matrix(2.1666666,0,0,2.1666666,-441.16569,-478.20554)"
         id="path3177"
         style="fill:#ffffff;fill-opacity:1;fill-rule:nonzero;stroke:#000000;stroke-width:1.84615386;stroke-linecap:round;stroke-linejoin:round;stroke-miterlimit:4;stroke-dasharray:none;stroke-opacity:1" />
      <path
         inkscape:connector-curvature="0"
         d="m 371.41771,413.3978 a 9.442825,9.442825 0 1 1 -18.88565,0 9.442825,9.442825 0 1 1 18.88565,0 z"
         transform="matrix(2.1666666,0,0,2.1666666,-395.84014,-478.20554)"
         id="path3179"
         style="fill:#ffffff;fill-opacity:1;fill-rule:nonzero;stroke:#000000;stroke-width:1.84615386;stroke-linecap:round;stroke-linejoin:round;stroke-miterlimit:4;stroke-dasharray:none;stroke-opacity:1" />
      <path
         inkscape:connector-curvature="0"
         d="m 377.08343,426.93253 a 6.60998,6.60998 0 1 1 -13.21996,0 6.60998,6.60998 0 1 1 13.21996,0 z"
         transform="translate(13.005549,-5.5105236)"
         id="path3183"
         style="fill:#000000;fill-opacity:1;fill-rule:nonzero;stroke:none;stroke-width:4;stroke-linecap:round;stroke-linejoin:round;stroke-miterlimit:4;stroke-dasharray:none;stroke-opacity:1" />
      <path
         inkscape:connector-curvature="0"
         d="m 347.03754,459.51189 c 4.14127,-6.99024 29.55287,-7.32604 34.86797,-0.47699 5.04715,6.50379 -7.57998,25.01398 -17.43398,24.25597 -9.825,-0.75577 -21.65764,-16.64969 -17.43399,-23.77898 z"
         id="path3192"
         style="fill:#000000;fill-opacity:1;fill-rule:evenodd;stroke:none;stroke-width:1px;stroke-linecap:butt;stroke-linejoin:miter;stroke-opacity:1" />
      <path
         inkscape:connector-curvature="0"
         d="m 354,671.86218 a 17.5,17.5 0 1 1 -35,0 17.5,17.5 0 1 1 35,0 z"
         transform="matrix(0.8428571,0,0,1,10.897888,-0.5)"
         id="path3220"
         style="fill:#502d16;fill-opacity:1;fill-rule:nonzero;stroke:#000000;stroke-width:4;stroke-linecap:round;stroke-linejoin:round;stroke-miterlimit:4;stroke-dasharray:none;stroke-opacity:1" />
      <path
         inkscape:connector-curvature="0"
         d="m 354,671.86218 a 17.5,17.5 0 1 1 -35,0 17.5,17.5 0 1 1 35,0 z"
         transform="matrix(0.8428571,0,0,1,47.897888,-0.5)"
         id="path3224"
         style="fill:#502d16;fill-opacity:1;fill-rule:nonzero;stroke:#000000;stroke-width:4;stroke-linecap:round;stroke-linejoin:round;stroke-miterlimit:4;stroke-dasharray:none;stroke-opacity:1" />
      <path
         inkscape:connector-curvature="0"
         d="m 354,671.86218 a 17.5,17.5 0 1 1 -35,0 17.5,17.5 0 1 1 35,0 z"
         transform="matrix(0.8428571,0,0,1,30.397888,-0.5)"
         id="path3222"
         style="fill:#502d16;fill-opacity:1;fill-rule:nonzero;stroke:#000000;stroke-width:4;stroke-linecap:round;stroke-linejoin:round;stroke-miterlimit:4;stroke-dasharray:none;stroke-opacity:1" />
      <path
         inkscape:connector-curvature="0"
         d="m 354,671.86218 a 17.5,17.5 0 1 1 -35,0 17.5,17.5 0 1 1 35,0 z"
         transform="matrix(0.8428571,0,0,1,124.39789,-0.5)"
         id="path3226"
         style="fill:#502d16;fill-opacity:1;fill-rule:nonzero;stroke:#000000;stroke-width:4;stroke-linecap:round;stroke-linejoin:round;stroke-miterlimit:4;stroke-dasharray:none;stroke-opacity:1" />
      <path
         inkscape:connector-curvature="0"
         d="m 354,671.86218 a 17.5,17.5 0 1 1 -35,0 17.5,17.5 0 1 1 35,0 z"
         transform="matrix(0.8428571,0,0,1,161.39789,-0.5)"
         id="path3228"
         style="fill:#502d16;fill-opacity:1;fill-rule:nonzero;stroke:#000000;stroke-width:4;stroke-linecap:round;stroke-linejoin:round;stroke-miterlimit:4;stroke-dasharray:none;stroke-opacity:1" />
      <path
         inkscape:connector-curvature="0"
         d="m 354,671.86218 a 17.5,17.5 0 1 1 -35,0 17.5,17.5 0 1 1 35,0 z"
         transform="matrix(0.8428571,0,0,1,143.89789,-0.5)"
         id="path3230"
         style="fill:#502d16;fill-opacity:1;fill-rule:nonzero;stroke:#000000;stroke-width:4;stroke-linecap:round;stroke-linejoin:round;stroke-miterlimit:4;stroke-dasharray:none;stroke-opacity:1" />
      <path
         inkscape:connector-curvature="0"
         d="m 440.03557,422.84064 a 49.10268,49.10268 0 1 1 -98.20536,0 49.10268,49.10268 0 1 1 98.20536,0 z"
         transform="matrix(0.4520038,0.121114,-0.121114,0.4520038,275.31834,305.00749)"
         id="path3244"
         style="fill:#000000;fill-opacity:0.31372549;fill-rule:nonzero;stroke:none;stroke-width:8.54794598;stroke-linecap:round;stroke-linejoin:round;stroke-miterlimit:4;stroke-dasharray:none;stroke-opacity:1" />
      <path
         inkscape:connector-curvature="0"
         d="m 440.03557,422.84064 a 49.10268,49.10268 0 1 1 -98.20536,0 49.10268,49.10268 0 1 1 98.20536,0 z"
         transform="matrix(0.4052555,-0.2339743,0.2339743,0.4052555,74.975292,459.09225)"
         id="path3159"
         style="fill:#784421;fill-opacity:1;fill-rule:nonzero;stroke:#000000;stroke-width:8.54794598;stroke-linecap:round;stroke-linejoin:round;stroke-miterlimit:4;stroke-dasharray:none;stroke-opacity:1" />
      <path
         inkscape:connector-curvature="0"
         d="m 440.03557,422.84064 a 49.10268,49.10268 0 1 1 -98.20536,0 49.10268,49.10268 0 1 1 98.20536,0 z"
         transform="matrix(0.3308897,0.3308897,-0.3308897,0.3308897,407.30938,269.10223)"
         id="path3161"
         style="fill:#784421;fill-opacity:1;fill-rule:nonzero;stroke:#000000;stroke-width:8.54794598;stroke-linecap:round;stroke-linejoin:round;stroke-miterlimit:4;stroke-dasharray:none;stroke-opacity:1" />
      <path
         inkscape:connector-curvature="0"
         d="m 354,671.86218 a 17.5,17.5 0 1 1 -35,0 17.5,17.5 0 1 1 35,0 z"
         transform="matrix(0.3913429,-0.2259419,0.2571428,0.4453845,25.537105,327.84484)"
         id="path3264"
         style="fill:#502d16;fill-opacity:1;fill-rule:nonzero;stroke:#000000;stroke-width:7.6176548;stroke-linecap:round;stroke-linejoin:round;stroke-miterlimit:4;stroke-dasharray:none;stroke-opacity:1" />
      <path
         inkscape:connector-curvature="0"
         d="m 354,671.86218 a 17.5,17.5 0 1 1 -35,0 17.5,17.5 0 1 1 35,0 z"
         transform="matrix(0.3913429,-0.2259419,0.2571428,0.4453845,42.716402,317.92636)"
         id="path3266"
         style="fill:#502d16;fill-opacity:1;fill-rule:nonzero;stroke:#000000;stroke-width:7.6176548;stroke-linecap:round;stroke-linejoin:round;stroke-miterlimit:4;stroke-dasharray:none;stroke-opacity:1" />
      <path
         inkscape:connector-curvature="0"
         d="m 354,671.86218 a 17.5,17.5 0 1 1 -35,0 17.5,17.5 0 1 1 35,0 z"
         transform="matrix(0.3913429,-0.2259419,0.2571428,0.4453845,36.591063,327.11754)"
         id="path3268"
         style="fill:#502d16;fill-opacity:1;fill-rule:nonzero;stroke:#000000;stroke-width:7.6176548;stroke-linecap:round;stroke-linejoin:round;stroke-miterlimit:4;stroke-dasharray:none;stroke-opacity:1" />
      <path
         inkscape:connector-curvature="0"
         d="m 354,671.86218 a 17.5,17.5 0 1 1 -35,0 17.5,17.5 0 1 1 35,0 z"
         transform="matrix(-0.3913429,-0.2259419,-0.2571428,0.4453845,704.69056,328.74557)"
         id="path3270"
         style="fill:#502d16;fill-opacity:1;fill-rule:nonzero;stroke:#000000;stroke-width:7.6176548;stroke-linecap:round;stroke-linejoin:round;stroke-miterlimit:4;stroke-dasharray:none;stroke-opacity:1" />
      <path
         inkscape:connector-curvature="0"
         d="m 354,671.86218 a 17.5,17.5 0 1 1 -35,0 17.5,17.5 0 1 1 35,0 z"
         transform="matrix(-0.3913429,-0.2259419,-0.2571428,0.4453845,687.51128,318.8271)"
         id="path3272"
         style="fill:#502d16;fill-opacity:1;fill-rule:nonzero;stroke:#000000;stroke-width:7.6176548;stroke-linecap:round;stroke-linejoin:round;stroke-miterlimit:4;stroke-dasharray:none;stroke-opacity:1" />
      <path
         inkscape:connector-curvature="0"
         d="m 354,671.86218 a 17.5,17.5 0 1 1 -35,0 17.5,17.5 0 1 1 35,0 z"
         transform="matrix(-0.3913429,-0.2259419,-0.2571428,0.4453845,693.63662,328.01828)"
         id="path3274"
         style="fill:#502d16;fill-opacity:1;fill-rule:nonzero;stroke:#000000;stroke-width:7.6176548;stroke-linecap:round;stroke-linejoin:round;stroke-miterlimit:4;stroke-dasharray:none;stroke-opacity:1" />
      <path
         inkscape:connector-curvature="0"
         d="m 418.38019,367.63601 c -4.01756,0 -7.52552,2.11622 -9.5272,5.27947 6.14348,4.13804 11.43329,9.42199 15.56764,15.56829 3.15325,-2.00372 5.25469,-5.54193 5.25469,-9.55216 0,-6.23343 -5.06196,-11.2956 -11.29513,-11.2956 z"
         id="path2483"
         style="fill:#502d16;fill-opacity:1;fill-rule:nonzero;stroke:#000000;stroke-width:3.99999976;stroke-linecap:round;stroke-linejoin:round;stroke-miterlimit:4;stroke-dasharray:none;stroke-opacity:1" />
      <path
         inkscape:connector-curvature="0"
         d="m 377.08343,426.93253 a 6.60998,6.60998 0 1 1 -13.21996,0 6.60998,6.60998 0 1 1 13.21996,0 z"
         transform="translate(-21.408717,-5.5105236)"
         id="path2515"
         style="fill:#000000;fill-opacity:1;fill-rule:nonzero;stroke:none;stroke-width:4;stroke-linecap:round;stroke-linejoin:round;stroke-miterlimit:4;stroke-dasharray:none;stroke-opacity:1" />
      <path
         inkscape:connector-curvature="0"
         d="m 312.74542,367.63601 c 4.01756,0 7.52552,2.11622 9.5272,5.27947 -6.14348,4.13804 -11.43329,9.42199 -15.56764,15.56829 -3.15325,-2.00372 -5.25469,-5.54193 -5.25469,-9.55216 0,-6.23343 5.06196,-11.2956 11.29513,-11.2956 z"
         id="path2523"
         style="fill:#502d16;fill-opacity:1;fill-rule:nonzero;stroke:#000000;stroke-width:3.99999976;stroke-linecap:round;stroke-linejoin:round;stroke-miterlimit:4;stroke-dasharray:none;stroke-opacity:1" />
      <path
         inkscape:connector-curvature="0"
         d="m 217.8125,67.8125 c 0.74197,4.151194 1.125,8.417392 1.125,12.78125 1e-5,40.13443 -32.58432,72.71875 -72.71875,72.71875 -30.63834,0 -56.838721,-19.00276 -67.53125,-45.84375 6.082171,33.9996 35.79182,59.84375 71.53125,59.84375 40.13443,0 72.71876,-32.58432 72.71875,-72.71875 0,-9.462486 -1.82395,-18.490519 -5.125,-26.78125 z"
         transform="translate(215.23291,337.26301)"
         id="path2525"
         style="fill:#000000;fill-opacity:0.31372549;fill-rule:nonzero;stroke:none;stroke-width:4.00000048;stroke-linecap:round;stroke-linejoin:round;stroke-miterlimit:4;stroke-dasharray:none;stroke-opacity:1" />
      <path
         inkscape:connector-curvature="0"
         d="m 426.91993,430.23552 c 10.86517,-4.99506 37.02118,12.71957 35.94704,17.96313 -15.51996,-5.50335 -23.20427,-5.50911 -31.69035,-2.07695 9.29611,3.86028 19.46283,12.90071 20.05272,22.22201 -6.4532,-5.42975 -18.30951,-10.5426 -30.41778,-8.28922 6.07578,7.17894 14.30876,13.77987 12.08601,23.18241 -7.51939,-7.96801 -14.92392,-9.05791 -22.34335,-11.03989"
         id="path2413"
         style="fill:#784421;fill-opacity:1;fill-rule:evenodd;stroke:#000000;stroke-width:4;stroke-linecap:round;stroke-linejoin:round;stroke-miterlimit:4;stroke-dasharray:none;stroke-opacity:1" />
      <path
         inkscape:connector-curvature="0"
         d="m 304.2983,430.23552 c -10.86517,-4.99506 -37.02118,12.71957 -35.94704,17.96313 15.51996,-5.50335 23.20427,-5.50911 31.69035,-2.07695 -9.29611,3.86028 -19.46283,12.90071 -20.05272,22.22201 6.4532,-5.42975 18.30951,-10.5426 30.41778,-8.28922 -6.07578,7.17894 -14.30876,13.77987 -12.08601,23.18241 7.51939,-7.96801 14.92392,-9.05791 22.34335,-11.03989"
         id="path3197"
         style="fill:#784421;fill-opacity:1;fill-rule:evenodd;stroke:#000000;stroke-width:4;stroke-linecap:round;stroke-linejoin:round;stroke-miterlimit:4;stroke-dasharray:none;stroke-opacity:1" />
      <path
         inkscape:connector-curvature="0"
         d="m 354.39355,490.565 c 6.52859,2.22737 16.22572,1.99028 21.21321,10e-6 5.11829,-2.04246 -2.04401,15.865 -4.24264,17.67766 -2.01499,1.66126 -11.42124,1.44847 -13.43503,0 -2.16787,-1.55929 -9.64295,-19.76135 -3.53554,-17.67767 z"
         id="path3225"
         style="fill:#ffffff;fill-opacity:1;fill-rule:evenodd;stroke:#000000;stroke-width:4;stroke-linecap:butt;stroke-linejoin:round;stroke-miterlimit:4;stroke-dasharray:none;stroke-opacity:1" />
    </g>
    <g
       transform="matrix(0.03737696,0,0,0.11520926,45.956652,187.99591)"
       style="font-style:normal;font-weight:normal;font-size:40px;line-height:1.25;font-family:sans-serif;letter-spacing:0px;word-spacing:0px;fill:#000000;fill-opacity:1;stroke:none"
       id="flowRoot4592" />
    <g
       transform="scale(0.56958468,1.7556652)"
       style="font-style:normal;font-weight:normal;font-size:2.62485695px;line-height:1.25;font-family:sans-serif;letter-spacing:0px;word-spacing:0px;fill:#000000;fill-opacity:1;stroke:none;stroke-width:0.06562142"
       id="text4602" />
    <g
       transform="scale(0.56958468,1.7556652)"
       style="font-style:normal;font-weight:normal;font-size:2.62485695px;line-height:1.25;font-family:sans-serif;letter-spacing:0px;word-spacing:0px;fill:#000000;fill-opacity:1;stroke:none;stroke-width:0.06562142"
       id="text4606" />
    <g
       transform="scale(0.56958468,1.7556652)"
       style="font-style:normal;font-weight:normal;font-size:2.62485695px;line-height:1.25;font-family:sans-serif;letter-spacing:0px;word-spacing:0px;fill:#000000;fill-opacity:1;stroke:none;stroke-width:0.06562142"
       id="text4610" />
    <g
       aria-label="QUINCY'S LAND"
       transform="scale(0.69062206,1.44797)"
       style="font-style:normal;font-variant:normal;font-weight:normal;font-stretch:normal;font-size:26.56771088px;line-height:1.25;font-family:Rasheeq;-inkscape-font-specification:Rasheeq;letter-spacing:0px;word-spacing:0px;fill:#d40000;fill-opacity:1;stroke:none;stroke-width:0.13837349"
       id="text4614">
      <path
         d="m 101.71375,127.44372 q 1.96609,0 3.46652,0.94165 1.51078,0.94165 2.29721,2.54556 0.78643,1.60391 0.78643,3.59069 0,1.36591 -0.40356,2.66974 -0.40357,1.30382 -1.08652,2.14199 l 1.49008,1.41765 -1.41765,1.50043 -1.61425,-1.50043 q -1.53148,0.92096 -3.51826,0.92096 -1.955732,0 -3.456164,-0.92096 -1.490084,-0.92095 -2.286865,-2.53521 -0.796781,-1.61426 -0.796781,-3.65278 0,-2.03851 0.796781,-3.65277 0.796781,-1.61426 2.286865,-2.53521 1.500432,-0.93131 3.456164,-0.93131 z m 1.60391,8.63007 1.53148,1.4487 q 0.60017,-1.2107 0.60017,-2.93878 0,-2.17304 -1.01408,-3.46652 -1.01409,-1.29347 -2.72148,-1.29347 -1.68669,0 -2.711122,1.30382 -1.024433,1.29348 -1.024433,3.43547 0,2.13165 1.024433,3.42513 1.024432,1.29347 2.700782,1.29347 0.95199,0 1.63495,-0.34147 l -1.43835,-1.36591 z"
         style="font-style:normal;font-variant:normal;font-weight:normal;font-stretch:normal;font-size:18.62604904px;font-family:Rasheeq;-inkscape-font-specification:Rasheeq;fill:#ffffff;stroke-width:0.13837349"
         id="path262"
         inkscape:connector-curvature="0" />
      <path
         d="m 115.66486,141.67196 q -0.74504,0 -1.4487,-0.12418 -0.70365,-0.12417 -1.43834,-0.46565 -0.73469,-0.34148 -1.27278,-0.85887 -0.53809,-0.51739 -0.88991,-1.37625 -0.34148,-0.86922 -0.34148,-1.96609 v -9.21989 h 2.79391 v 9.21989 q 0,1.23139 0.63121,1.82122 0.64157,0.57947 1.96609,0.57947 1.30382,0 1.93504,-0.58982 0.64156,-0.58983 0.64156,-1.81087 v -9.21989 h 2.79391 v 9.21989 q 0,1.09687 -0.35183,1.96609 -0.34147,0.85886 -0.87956,1.37625 -0.53809,0.51739 -1.27278,0.85887 -0.72435,0.34148 -1.428,0.46565 -0.70365,0.12418 -1.43834,0.12418 z"
         style="font-style:normal;font-variant:normal;font-weight:normal;font-stretch:normal;font-size:18.62604904px;font-family:Rasheeq;-inkscape-font-specification:Rasheeq;fill:#ffffff;stroke-width:0.13837349"
         id="path264"
         inkscape:connector-curvature="0" />
      <path
         d="m 126.28979,127.66103 v 13.58667 h -2.80426 v -13.58667 z"
         style="font-style:normal;font-variant:normal;font-weight:normal;font-stretch:normal;font-size:18.62604904px;font-family:Rasheeq;-inkscape-font-specification:Rasheeq;fill:#ffffff;stroke-width:0.13837349"
         id="path266"
         inkscape:connector-curvature="0" />
      <path
         d="m 136.99168,141.2477 -5.45329,-9.38546 v 9.38546 h -2.79391 v -13.58667 h 2.87669 l 5.37051,9.24059 v -9.24059 h 2.80426 v 13.58667 z"
         style="font-style:normal;font-variant:normal;font-weight:normal;font-stretch:normal;font-size:18.62604904px;font-family:Rasheeq;-inkscape-font-specification:Rasheeq;fill:#ffffff;stroke-width:0.13837349"
         id="path268"
         inkscape:connector-curvature="0" />
      <path
         d="m 150.97965,132.2658 q -0.0517,-0.24835 -0.11382,-0.42426 -0.0517,-0.17591 -0.18626,-0.49669 -0.13452,-0.33113 -0.34148,-0.55878 -0.20696,-0.238 -0.50704,-0.476 -0.30009,-0.238 -0.75539,-0.36218 -0.44496,-0.12417 -1.00374,-0.12417 -1.6453,0 -2.58695,1.27278 -0.9313,1.27278 -0.9313,3.51825 0,2.22478 0.90026,3.47687 0.9106,1.24173 2.52486,1.24173 1.30382,0 2.09026,-0.714 0.78643,-0.714 0.9106,-2.01782 h 2.73183 q -0.13453,2.32826 -1.70739,3.70452 -1.57287,1.36591 -4.09773,1.36591 -2.8353,0 -4.49095,-1.904 -1.65565,-1.91434 -1.65565,-5.18425 0,-3.30095 1.666,-5.21529 1.67634,-1.9247 4.55303,-1.9247 2.41104,0 3.95286,1.28313 1.54183,1.28313 1.71774,3.53895 z"
         style="font-style:normal;font-variant:normal;font-weight:normal;font-stretch:normal;font-size:18.62604904px;font-family:Rasheeq;-inkscape-font-specification:Rasheeq;fill:#ffffff;stroke-width:0.13837349"
         id="path270"
         inkscape:connector-curvature="0" />
      <path
         d="m 162.20476,136.21866 v 5.02904 h -2.78356 v -5.02904 l -4.52199,-8.55763 h 3.11469 l 2.77321,6.01207 2.5973,-6.01207 h 3.12503 z"
         style="font-style:normal;font-variant:normal;font-weight:normal;font-stretch:normal;font-size:18.62604904px;font-family:Rasheeq;-inkscape-font-specification:Rasheeq;fill:#ffffff;stroke-width:0.13837349"
         id="path272"
         inkscape:connector-curvature="0" />
      <path
         d="m 170.30531,127.66103 v 2.43173 l -0.77608,2.40069 h -1.04513 l -0.74504,-2.40069 v -2.43173 z"
         style="font-style:normal;font-variant:normal;font-weight:normal;font-stretch:normal;font-size:18.62604904px;font-family:Rasheeq;-inkscape-font-specification:Rasheeq;fill:#ffffff;stroke-width:0.13837349"
         id="path274"
         inkscape:connector-curvature="0" />
      <path
         d="m 182.5458,131.8105 h -2.60765 q -0.0621,-1.04513 -0.78643,-1.58322 -0.72435,-0.54843 -2.05922,-0.54843 -1.07617,0 -1.71773,0.4553 -0.63122,0.45531 -0.63122,1.23139 0,0.7347 0.53809,1.09687 0.53808,0.36217 2.03852,0.66226 l 2.1213,0.41391 q 1.8833,0.36217 2.74216,1.25209 0.85887,0.88991 0.85887,2.48347 0,2.06956 -1.47973,3.23886 -1.46939,1.15896 -4.09773,1.15896 -2.5973,0 -4.046,-1.14861 -1.44869,-1.15895 -1.57286,-3.33199 h 2.71112 q 0.0724,1.08652 0.84852,1.66599 0.78644,0.57948 2.21443,0.57948 1.27278,0 2.00748,-0.476 0.73469,-0.48635 0.73469,-1.33487 0,-0.82782 -0.57948,-1.27278 -0.57947,-0.44495 -1.97643,-0.71399 l -1.90399,-0.37253 q -2.05922,-0.39321 -2.93878,-1.23138 -0.86922,-0.83818 -0.86922,-2.42139 0,-1.97643 1.34522,-3.0733 1.34521,-1.09687 3.7873,-1.09687 0.48634,0 0.95199,0.0517 0.476,0.0414 1.01409,0.16557 0.54843,0.12417 1.01408,0.33113 0.46565,0.19661 0.90026,0.53808 0.44496,0.34148 0.75539,0.78644 0.31044,0.44495 0.4967,1.08652 0.18626,0.64156 0.18626,1.4073 z"
         style="font-style:normal;font-variant:normal;font-weight:normal;font-stretch:normal;font-size:18.62604904px;font-family:Rasheeq;-inkscape-font-specification:Rasheeq;fill:#ffffff;stroke-width:0.13837349"
         id="path276"
         inkscape:connector-curvature="0" />
      <path
         d="m 193.10104,127.66103 v 11.24806 h 6.49842 v 2.33861 h -9.29233 v -13.58667 z"
         style="font-style:normal;font-variant:normal;font-weight:normal;font-stretch:normal;font-size:18.62604904px;font-family:Rasheeq;-inkscape-font-specification:Rasheeq;fill:#ffffff;stroke-width:0.13837349"
         id="path278"
         inkscape:connector-curvature="0" />
      <path
         d="m 209.53739,138.51588 h -5.09112 l -0.9106,2.73182 h -2.84565 l 4.83243,-13.58667 h 3.07329 l 4.69791,13.58667 h -2.856 z m -0.76573,-2.33861 -1.75913,-5.30842 -1.77982,5.30842 z"
         style="font-style:normal;font-variant:normal;font-weight:normal;font-stretch:normal;font-size:18.62604904px;font-family:Rasheeq;-inkscape-font-specification:Rasheeq;fill:#ffffff;stroke-width:0.13837349"
         id="path280"
         inkscape:connector-curvature="0" />
      <path
         d="m 223.17354,141.2477 -5.45329,-9.38546 v 9.38546 h -2.79391 v -13.58667 h 2.87669 l 5.37051,9.24059 v -9.24059 h 2.80426 v 13.58667 z"
         style="font-style:normal;font-variant:normal;font-weight:normal;font-stretch:normal;font-size:18.62604904px;font-family:Rasheeq;-inkscape-font-specification:Rasheeq;fill:#ffffff;stroke-width:0.13837349"
         id="path282"
         inkscape:connector-curvature="0" />
      <path
         d="m 228.56248,141.2477 v -13.58667 h 5.30843 q 1.55217,0 2.56625,0.37252 1.02444,0.37252 1.71774,1.19 1.65565,1.98678 1.65565,5.21529 0,3.26991 -1.65565,5.21529 -0.6933,0.82783 -1.71774,1.2107 -1.01408,0.38287 -2.56625,0.38287 z m 2.78356,-2.33861 h 2.52487 q 3.13538,0 3.13538,-4.43921 0,-4.47025 -3.13538,-4.47025 h -2.52487 z"
         style="font-style:normal;font-variant:normal;font-weight:normal;font-stretch:normal;font-size:18.62604904px;font-family:Rasheeq;-inkscape-font-specification:Rasheeq;fill:#ffffff;stroke-width:0.13837349"
         id="path284"
         inkscape:connector-curvature="0" />
    </g>
  </g>
</svg>
