<?xml version="1.0" encoding="UTF-8" standalone="no"?>
<!-- Created with Inkscape (http://www.inkscape.org/) -->

<svg
   xmlns:dc="http://purl.org/dc/elements/1.1/"
   xmlns:cc="http://creativecommons.org/ns#"
   xmlns:rdf="http://www.w3.org/1999/02/22-rdf-syntax-ns#"
   xmlns:svg="http://www.w3.org/2000/svg"
   xmlns="http://www.w3.org/2000/svg"
   xmlns:sodipodi="http://sodipodi.sourceforge.net/DTD/sodipodi-0.dtd"
   xmlns:inkscape="http://www.inkscape.org/namespaces/inkscape"
   width="350.23907"
   height="38.910938"
   viewBox="0 0 92.667424 10.295186"
   version="1.1"
   id="svg4373"
   inkscape:version="0.92.3 (2405546, 2018-03-11)"
   sodipodi:docname="watermark.svg"
   inkscape:export-filename="/home/jonyoung/work/quincysland-cms/static/img/watermark.png"
   inkscape:export-xdpi="80.727303"
   inkscape:export-ydpi="80.727303"
   enable-background="new">
  <defs
     id="defs4367">
    <filter
       inkscape:collect="always"
       style="color-interpolation-filters:sRGB"
       id="filter146">
      <feBlend
         inkscape:collect="always"
         mode="color-dodge"
         in2="BackgroundImage"
         id="feBlend148" />
    </filter>
  </defs>
  <sodipodi:namedview
     id="base"
     pagecolor="#000000"
     bordercolor="#666666"
     borderopacity="1.0"
     inkscape:pageopacity="0"
     inkscape:pageshadow="2"
     inkscape:zoom="2"
     inkscape:cx="105.08614"
     inkscape:cy="37.24191"
     inkscape:document-units="mm"
     inkscape:current-layer="text4614"
     showgrid="true"
     inkscape:window-width="1920"
     inkscape:window-height="1012"
     inkscape:window-x="0"
     inkscape:window-y="32"
     inkscape:window-maximized="1"
     fit-margin-top="0.1"
     fit-margin-left="0.1"
     fit-margin-right="0.1"
     fit-margin-bottom="0.1">
    <inkscape:grid
       type="xygrid"
       id="grid4375"
       originx="-46.869777"
       originy="-99.533488" />
  </sodipodi:namedview>
  <metadata
     id="metadata4370">
    <rdf:RDF>
      <cc:Work
         rdf:about="">
        <dc:format>image/svg+xml</dc:format>
        <dc:type
           rdf:resource="http://purl.org/dc/dcmitype/StillImage" />
        <dc:title></dc:title>
      </cc:Work>
    </rdf:RDF>
  </metadata>
  <g
     inkscape:label="Layer 1"
     inkscape:groupmode="layer"
     id="layer1"
     transform="translate(-46.869779,-187.17134)">
    <g
       transform="matrix(0.03737696,0,0,0.11520926,45.956652,187.99591)"
       style="font-style:normal;font-weight:normal;font-size:40px;line-height:1.25;font-family:sans-serif;letter-spacing:0px;word-spacing:0px;fill:#000000;fill-opacity:1;stroke:none"
       id="flowRoot4592" />
    <g
       transform="scale(0.56958468,1.7556652)"
       style="font-style:normal;font-weight:normal;font-size:2.62485695px;line-height:1.25;font-family:sans-serif;letter-spacing:0px;word-spacing:0px;fill:#000000;fill-opacity:1;stroke:none;stroke-width:0.06562142"
       id="text4602" />
    <g
       transform="scale(0.56958468,1.7556652)"
       style="font-style:normal;font-weight:normal;font-size:2.62485695px;line-height:1.25;font-family:sans-serif;letter-spacing:0px;word-spacing:0px;fill:#000000;fill-opacity:1;stroke:none;stroke-width:0.06562142"
       id="text4606" />
    <g
       transform="scale(0.56958468,1.7556652)"
       style="font-style:normal;font-weight:normal;font-size:2.62485695px;line-height:1.25;font-family:sans-serif;letter-spacing:0px;word-spacing:0px;fill:#000000;fill-opacity:1;stroke:none;stroke-width:0.06562142"
       id="text4610" />
    <g
       aria-label="QUINCY'S LAND"
       transform="scale(0.69062206,1.44797)"
       style="font-style:normal;font-variant:normal;font-weight:normal;font-stretch:normal;font-size:26.56771088px;line-height:1.25;font-family:Rasheeq;-inkscape-font-specification:Rasheeq;letter-spacing:0px;word-spacing:0px;fill:#d40000;fill-opacity:1;stroke:none;stroke-width:0.13837349;opacity:1;filter:url(#filter146)"
       id="text4614">
      <g
         aria-label="QuincysLand.com"
         transform="matrix(0.38310872,0,0,0.18272708,64.749682,127.01097)"
         style="font-style:normal;font-weight:normal;font-size:40px;line-height:1.25;font-family:sans-serif;letter-spacing:0px;word-spacing:0px;fill:#ff0000;fill-opacity:1;stroke:none"
         id="flowRoot87">
        <path
           d="m 21.75,16.339844 q -4.296875,0 -6.835937,3.203125 -2.519532,3.203125 -2.519532,8.730468 0,5.507813 2.519532,8.710938 2.539062,3.203125 6.835937,3.203125 4.296875,0 6.796875,-3.203125 2.519531,-3.203125 2.519531,-8.710938 0,-5.527343 -2.519531,-8.730468 -2.5,-3.203125 -6.796875,-3.203125 z m 5.527344,25.957031 5.195312,5.683594 H 27.707031 L 23.390625,43.3125 q -0.644531,0.03906 -0.996094,0.05859 -0.332031,0.01953 -0.644531,0.01953 -6.152344,0 -9.84375,-4.101563 -3.671875,-4.121093 -3.671875,-11.015625 0,-6.914062 3.671875,-11.015625 3.691406,-4.121093 9.84375,-4.121093 6.132812,0 9.804687,4.121093 3.671875,4.101563 3.671875,11.015625 0,5.078125 -2.050781,8.691407 -2.03125,3.613281 -5.898437,5.332031 z"
           style="fill:#ff0000"
           id="path95" />
        <path
           d="M 40.871094,34.191406 V 20.949219 h 3.59375 v 13.105468 q 0,3.105469 1.210937,4.667969 1.210938,1.542969 3.632813,1.542969 2.910156,0 4.589843,-1.855469 1.699219,-1.855469 1.699219,-5.058594 V 20.949219 h 3.59375 v 21.875 h -3.59375 v -3.359375 q -1.308594,1.992187 -3.046875,2.96875 -1.71875,0.957031 -4.003906,0.957031 -3.769531,0 -5.722656,-2.34375 -1.953125,-2.34375 -1.953125,-6.855469 z m 9.042968,-13.769531 z"
           style="fill:#ff0000"
           id="path97" />
        <path
           d="m 66.632812,20.949219 h 3.59375 v 21.875 h -3.59375 z m 0,-8.515625 h 3.59375 v 4.550781 h -3.59375 z"
           style="fill:#ff0000"
           id="path99" />
        <path
           d="m 95.910156,29.621094 v 13.203125 h -3.59375 V 29.738281 q 0,-3.105469 -1.210937,-4.648437 -1.210938,-1.542969 -3.632813,-1.542969 -2.910156,0 -4.589844,1.855469 -1.679687,1.855468 -1.679687,5.058593 v 12.363282 h -3.613281 v -21.875 h 3.613281 v 3.398437 q 1.289062,-1.972656 3.027344,-2.949219 1.757812,-0.976562 4.042968,-0.976562 3.769532,0 5.703125,2.34375 1.933594,2.324219 1.933594,6.855469 z"
           style="fill:#ff0000"
           id="path101" />
        <path
           d="m 118.85938,21.789062 v 3.359375 q -1.52344,-0.839843 -3.06641,-1.25 -1.52344,-0.429687 -3.08594,-0.429687 -3.49609,0 -5.42969,2.226562 -1.93359,2.207032 -1.93359,6.210938 0,4.003906 1.93359,6.230469 1.9336,2.207031 5.42969,2.207031 1.5625,0 3.08594,-0.410156 1.54297,-0.429688 3.06641,-1.269532 v 3.320313 q -1.50391,0.703125 -3.125,1.054687 -1.60157,0.351563 -3.41797,0.351563 -4.94141,0 -7.85157,-3.105469 -2.91015,-3.105469 -2.91015,-8.378906 0,-5.351563 2.92969,-8.417969 2.94921,-3.066406 8.0664,-3.066406 1.66016,0 3.24219,0.351562 1.58203,0.332032 3.06641,1.015625 z"
           style="fill:#ff0000"
           id="path103" />
        <path
           d="m 134.25,44.855469 q -1.52344,3.90625 -2.96875,5.097656 -1.44531,1.191406 -3.86719,1.191406 h -2.87109 v -3.007812 h 2.10937 q 1.48438,0 2.30469,-0.703125 0.82031,-0.703125 1.81641,-3.320313 l 0.64453,-1.640625 -8.84766,-21.523437 h 3.8086 l 6.83593,17.109375 6.83594,-17.109375 h 3.80859 z"
           style="fill:#ff0000"
           id="path105" />
        <path
           d="m 162.76562,21.59375 v 3.398437 q -1.52343,-0.78125 -3.16406,-1.171875 -1.64062,-0.390625 -3.39844,-0.390625 -2.67578,0 -4.02343,0.820313 -1.32813,0.820312 -1.32813,2.460937 0,1.25 0.95703,1.972657 0.95703,0.703125 3.84766,1.347656 l 1.23047,0.273437 q 3.82812,0.820313 5.42969,2.324219 1.62109,1.484375 1.62109,4.160156 0,3.046875 -2.42188,4.824219 -2.40234,1.777344 -6.62109,1.777344 -1.75781,0 -3.67187,-0.351563 -1.89454,-0.332031 -4.00391,-1.015625 V 38.3125 q 1.99219,1.035156 3.92578,1.5625 1.93359,0.507812 3.82813,0.507812 2.53906,0 3.90625,-0.859375 1.36718,-0.878906 1.36718,-2.460937 0,-1.464844 -0.99609,-2.246094 -0.97656,-0.78125 -4.31641,-1.503906 l -1.25,-0.292969 q -3.33984,-0.703125 -4.82422,-2.148437 -1.48437,-1.464844 -1.48437,-4.003907 0,-3.085937 2.1875,-4.765625 2.1875,-1.679687 6.21094,-1.679687 1.99218,0 3.75,0.292969 1.75781,0.292968 3.24218,0.878906 z"
           style="fill:#ff0000"
           id="path107" />
        <path
           d="m 169.83594,13.664063 h 3.94531 v 25.839843 h 14.19922 v 3.320313 h -18.14453 z"
           style="fill:#ff0000"
           id="path109" />
        <path
           d="m 201.88672,31.828125 q -4.35547,0 -6.03516,0.996094 -1.67969,0.996093 -1.67969,3.398437 0,1.914063 1.25,3.046875 1.26954,1.113281 3.4375,1.113281 2.98829,0 4.78516,-2.109375 1.81641,-2.128906 1.81641,-5.644531 v -0.800781 z m 7.16797,-1.484375 v 12.480469 h -3.59375 v -3.320313 q -1.23047,1.992188 -3.06641,2.949219 -1.83594,0.9375 -4.49219,0.9375 -3.35937,0 -5.35156,-1.875 -1.97266,-1.894531 -1.97266,-5.058594 0,-3.691406 2.46094,-5.566406 2.48047,-1.875 7.38281,-1.875 h 5.03907 v -0.351563 q 0,-2.480468 -1.64063,-3.828125 -1.62109,-1.367187 -4.57031,-1.367187 -1.875,0 -3.65234,0.449219 -1.77735,0.449218 -3.41797,1.347656 v -3.320313 q 1.97265,-0.761718 3.82812,-1.132812 1.85547,-0.390625 3.61328,-0.390625 4.7461,0 7.08985,2.460937 2.34375,2.460938 2.34375,7.460938 z"
           style="fill:#ff0000"
           id="path111" />
        <path
           d="m 234.66016,29.621094 v 13.203125 h -3.59375 V 29.738281 q 0,-3.105469 -1.21094,-4.648437 -1.21094,-1.542969 -3.63281,-1.542969 -2.91016,0 -4.58985,1.855469 -1.67969,1.855468 -1.67969,5.058593 v 12.363282 h -3.61328 v -21.875 h 3.61328 v 3.398437 q 1.28907,-1.972656 3.02735,-2.949219 1.75781,-0.976562 4.04297,-0.976562 3.76953,0 5.70312,2.34375 1.9336,2.324219 1.9336,6.855469 z"
           style="fill:#ff0000"
           id="path113" />
        <path
           d="M 256.26172,24.269531 V 12.433594 h 3.59375 v 30.390625 h -3.59375 v -3.28125 q -1.13281,1.953125 -2.8711,2.910156 -1.71875,0.9375 -4.14062,0.9375 -3.96484,0 -6.46484,-3.164063 -2.48047,-3.164062 -2.48047,-8.320312 0,-5.15625 2.48047,-8.320313 2.5,-3.164062 6.46484,-3.164062 2.42187,0 4.14062,0.957031 1.73829,0.9375 2.8711,2.890625 z m -12.2461,7.636719 q 0,3.964844 1.6211,6.230469 1.64062,2.246093 4.49219,2.246093 2.85156,0 4.49218,-2.246093 1.64063,-2.265625 1.64063,-6.230469 0,-3.964844 -1.64063,-6.210938 -1.64062,-2.265625 -4.49218,-2.265625 -2.85157,0 -4.49219,2.265625 -1.6211,2.246094 -1.6211,6.210938 z"
           style="fill:#ff0000"
           id="path115" />
        <path
           d="m 267.76562,37.863281 h 4.1211 v 4.960938 h -4.1211 z"
           style="fill:#ff0000"
           id="path117" />
        <path
           d="m 295.73437,21.789062 v 3.359375 q -1.52343,-0.839843 -3.0664,-1.25 -1.52344,-0.429687 -3.08594,-0.429687 -3.49609,0 -5.42969,2.226562 -1.93359,2.207032 -1.93359,6.210938 0,4.003906 1.93359,6.230469 1.9336,2.207031 5.42969,2.207031 1.5625,0 3.08594,-0.410156 1.54297,-0.429688 3.0664,-1.269532 v 3.320313 q -1.5039,0.703125 -3.125,1.054687 -1.60156,0.351563 -3.41796,0.351563 -4.94141,0 -7.85157,-3.105469 -2.91015,-3.105469 -2.91015,-8.378906 0,-5.351563 2.92968,-8.417969 2.94922,-3.066406 8.06641,-3.066406 1.66016,0 3.24219,0.351562 1.58203,0.332032 3.0664,1.015625 z"
           style="fill:#ff0000"
           id="path119" />
        <path
           d="m 310.5,23.46875 q -2.89063,0 -4.57031,2.265625 -1.67969,2.246094 -1.67969,6.171875 0,3.925781 1.66016,6.191406 1.67968,2.246094 4.58984,2.246094 2.87109,0 4.55078,-2.265625 1.67969,-2.265625 1.67969,-6.171875 0,-3.886719 -1.67969,-6.152344 Q 313.37109,23.46875 310.5,23.46875 Z m 0,-3.046875 q 4.6875,0 7.36328,3.046875 2.67578,3.046875 2.67578,8.4375 0,5.371094 -2.67578,8.4375 -2.67578,3.046875 -7.36328,3.046875 -4.70703,0 -7.38281,-3.046875 -2.65625,-3.066406 -2.65625,-8.4375 0,-5.390625 2.65625,-8.4375 2.67578,-3.046875 7.38281,-3.046875 z"
           style="fill:#ff0000"
           id="path121" />
        <path
           d="m 343.50781,25.148437 q 1.34766,-2.421875 3.22266,-3.574218 1.875,-1.152344 4.41406,-1.152344 3.41797,0 5.27344,2.402344 1.85547,2.382812 1.85547,6.796875 v 13.203125 h -3.61328 V 29.738281 q 0,-3.144531 -1.11329,-4.667969 -1.11328,-1.523437 -3.39843,-1.523437 -2.79297,0 -4.41407,1.855469 -1.62109,1.855468 -1.62109,5.058593 V 42.824219 H 340.5 V 29.738281 q 0,-3.164062 -1.11328,-4.667969 -1.11328,-1.523437 -3.4375,-1.523437 -2.75391,0 -4.375,1.875 -1.6211,1.855469 -1.6211,5.039062 v 12.363282 h -3.61328 v -21.875 h 3.61328 v 3.398437 q 1.23047,-2.011719 2.94922,-2.96875 1.71875,-0.957031 4.08203,-0.957031 2.38282,0 4.04297,1.210937 1.67969,1.210938 2.48047,3.515625 z"
           style="fill:#ff0000"
           id="path123" />
      </g>
    </g>
  </g>
</svg>
